<svg width="28" height="28" viewBox="0 0 28 28" fill="none" xmlns="http://www.w3.org/2000/svg">
<path d="M6.39447 2.32403C6.29116 2.19113 6.16076 2.08174 6.01192 2.00312C5.86309 1.9245 5.69923 1.87844 5.53123 1.86802C5.36323 1.85759 5.19493 1.88303 5.03751 1.94264C4.8801 2.00225 4.73717 2.09468 4.61822 2.21378L2.80872 4.02503C1.96347 4.87203 1.65197 6.07078 2.02122 7.12253C3.55376 11.4758 6.04674 15.4282 9.31522 18.6865C12.5736 21.955 16.526 24.4479 20.8792 25.9805C21.931 26.3498 23.1297 26.0383 23.9767 25.193L25.7862 23.3835C25.9053 23.2646 25.9977 23.1216 26.0574 22.9642C26.117 22.8068 26.1424 22.6385 26.132 22.4705C26.1216 22.3025 26.0755 22.1387 25.9969 21.9898C25.9183 21.841 25.8089 21.7106 25.676 21.6073L21.6387 18.4678C21.4967 18.3577 21.3316 18.2812 21.1558 18.2442C20.98 18.2073 20.798 18.2107 20.6237 18.2543L16.7912 19.2115C16.2797 19.3394 15.7437 19.3326 15.2355 19.1918C14.7274 19.0511 14.2643 18.7811 13.8915 18.4083L9.59347 14.1085C9.22032 13.7358 8.95004 13.2729 8.80897 12.7647C8.66789 12.2565 8.66083 11.7205 8.78847 11.2088L9.74747 7.37628C9.79106 7.20197 9.79449 7.02004 9.7575 6.84421C9.72052 6.66839 9.64409 6.50325 9.53397 6.36128L6.39447 2.32403ZM3.29697 0.894278C3.60321 0.58794 3.97112 0.350256 4.37626 0.19701C4.78141 0.0437641 5.21452 -0.0215377 5.64684 0.00544078C6.07916 0.0324193 6.50079 0.151061 6.88374 0.353487C7.26669 0.555914 7.60219 0.837493 7.86797 1.17953L11.0075 5.21503C11.5832 5.95528 11.7862 6.91953 11.5587 7.82953L10.6015 11.662C10.552 11.8605 10.5547 12.0685 10.6092 12.2656C10.6638 12.4628 10.7684 12.6425 10.913 12.7873L15.2127 17.087C15.3577 17.2318 15.5377 17.3367 15.7352 17.3912C15.9327 17.4458 16.141 17.4483 16.3397 17.3985L20.1705 16.4413C20.6195 16.329 21.0883 16.3203 21.5412 16.4158C21.9942 16.5113 22.4195 16.7085 22.785 16.9925L26.8205 20.132C28.2712 21.2608 28.4042 23.4045 27.1057 24.7013L25.2962 26.5108C24.0012 27.8058 22.0657 28.3745 20.2615 27.7393C15.6435 26.1144 11.4507 23.4707 7.99397 20.0043C4.52773 16.5481 1.88403 12.3558 0.25897 7.73853C-0.37453 5.93603 0.19422 3.99878 1.48922 2.70378L3.29872 0.894278H3.29697Z" fill="white"/>
</svg>
